<svg width="28" height="26" viewBox="0 0 28 26" fill="none" xmlns="http://www.w3.org/2000/svg">
<path d="M14.8983 23.6116C20.9196 23.6116 25.8009 18.8471 25.8009 12.9697C25.8009 7.0924 20.9196 2.32788 14.8983 2.32788C8.87689 2.32788 3.99561 7.0924 3.99561 12.9697C3.99561 18.8471 8.87689 23.6116 14.8983 23.6116Z" stroke="black"/>
<path d="M14.3855 19.303C14.2396 19.4685 13.9874 19.4811 13.825 19.331L7.68404 13.6579C7.52161 13.5078 7.51455 13.2554 7.66818 13.0968L9.62471 11.0788C9.77846 10.9203 10.0371 10.9134 10.1996 11.0634L13.5541 14.1622C13.7166 14.3122 13.9688 14.2996 14.1146 14.1341L20.6682 6.70164C20.8141 6.53615 21.0721 6.51728 21.2416 6.65974L23.3988 8.47206C23.5683 8.61439 23.5877 8.86635 23.4417 9.03178L14.3855 19.303Z" fill="black"/>
</svg>
