<svg width="38" height="38" viewBox="0 0 38 38" fill="none" xmlns="http://www.w3.org/2000/svg">
<path d="M23.3869 10.9907C23.3868 10.1231 23.1294 9.27497 22.6473 8.55362C22.1651 7.83227 21.48 7.27008 20.6784 6.93814C19.8767 6.60619 18.9947 6.5194 18.1438 6.68874C17.2928 6.85808 16.5112 7.27594 15.8977 7.88948C15.2843 8.50303 14.8665 9.2847 14.6973 10.1357C14.5281 10.9866 14.615 11.8687 14.947 12.6702C15.2791 13.4718 15.8414 14.1569 16.5628 14.6389C17.2842 15.1209 18.1323 15.3782 19 15.3782C20.1631 15.3768 21.2782 14.9141 22.1006 14.0915C22.923 13.269 23.3856 12.1539 23.3869 10.9907ZM15.6521 10.9907C15.6522 10.3286 15.8487 9.68137 16.2166 9.13089C16.5845 8.58042 17.1074 8.1514 17.7192 7.8981C18.331 7.6448 19.0041 7.57859 19.6535 7.70784C20.3028 7.83708 20.8993 8.15598 21.3675 8.62421C21.8356 9.09244 22.1544 9.68897 22.2835 10.3384C22.4127 10.9878 22.3463 11.6609 22.0929 12.2726C21.8395 12.8843 21.4104 13.4071 20.8599 13.775C20.3093 14.1428 19.6621 14.3392 19 14.3392C18.1123 14.3381 17.2612 13.985 16.6336 13.3572C16.0059 12.7295 15.653 11.8784 15.6521 10.9907Z" fill="black"/>
<path d="M36.613 35.9424L32.3777 24.8393C32.3402 24.741 32.2737 24.6564 32.187 24.5967C32.1003 24.537 31.9976 24.505 31.8923 24.505H23.8767C23.9257 24.4251 23.9744 24.3476 24.0234 24.2675C27.1076 19.1612 28.6597 14.6945 28.6374 10.993C28.6378 8.43693 27.6229 5.98536 25.8157 4.17762C24.0086 2.36989 21.5574 1.35407 19.0013 1.35364C16.4452 1.3532 13.9936 2.36819 12.1859 4.17531C10.3782 5.98244 9.36234 8.43366 9.36191 10.9898C9.33965 14.6945 10.8917 19.1618 13.9759 24.2675C14.0249 24.3485 14.0736 24.426 14.1226 24.505H6.10697C6.00174 24.505 5.899 24.537 5.81233 24.5967C5.72566 24.6564 5.65915 24.741 5.62158 24.8393L1.38696 35.9424C1.35679 36.0211 1.34622 36.1059 1.35617 36.1896C1.36613 36.2732 1.3963 36.3532 1.44409 36.4226C1.49188 36.492 1.55585 36.5487 1.63046 36.5878C1.70508 36.6269 1.7881 36.6473 1.87235 36.6472H36.1276C36.2118 36.6473 36.2948 36.6269 36.3695 36.5878C36.4441 36.5487 36.508 36.492 36.5558 36.4226C36.6036 36.3532 36.6338 36.2732 36.6437 36.1896C36.6537 36.1059 36.6431 36.0211 36.613 35.9424ZM10.4013 10.9906C10.4015 9.86145 10.6241 8.74335 11.0564 7.70018C11.4887 6.65702 12.1222 5.70921 12.9208 4.91089C13.7194 4.11257 14.6674 3.47935 15.7108 3.04741C16.7541 2.61547 17.8722 2.39325 19.0014 2.39344C20.1306 2.39364 21.2487 2.61624 22.2919 3.04855C23.3351 3.48085 24.2829 4.11439 25.0812 4.91299C25.8795 5.71159 26.5127 6.65961 26.9447 7.70293C27.3766 8.74624 27.5988 9.86442 27.5986 10.9936C27.6432 18.3733 20.7438 27.4752 19 29.6578C17.2561 27.4761 10.3564 18.3766 10.4013 10.9906ZM18.6042 30.8157C18.653 30.873 18.7136 30.9191 18.782 30.9506C18.8503 30.9822 18.9247 30.9986 19 30.9986C19.0752 30.9986 19.1496 30.9822 19.2179 30.9506C19.2863 30.9191 19.3469 30.873 19.3957 30.8157C20.7751 29.1353 22.0539 27.3748 23.2254 25.5435H31.534L32.199 27.2876L15.9626 33.0621L10.1753 25.5426H14.7739C15.9456 27.3743 17.2246 29.135 18.6042 30.8157ZM15.9445 34.1703H15.9475L25.6336 30.7266L29.3906 35.6081H11.9046L15.9445 34.1703ZM6.4653 25.5426H8.86405L14.9328 33.4282L8.80438 35.6078H2.62641L6.4653 25.5426ZM30.7031 35.6081L26.6629 30.3588L32.5707 28.2578L35.3741 35.6081H30.7031Z" fill="black"/>
</svg>
