<svg width="64" height="71" viewBox="0 0 64 71" fill="none" xmlns="http://www.w3.org/2000/svg">
<path d="M60.1773 44.1351H56.2162V42.2162H59.6264C60.229 40.7052 60.5403 39.0711 60.5403 37.4189C60.5403 35.7666 60.229 34.1326 59.6264 32.6216H23.3514C21.5974 32.6216 12.5224 33.3805 9.86985 34.5232L9.41147 34.7199C7.78379 35.4184 3.45947 37.273 3.45947 38.3783V41.2567C3.45947 41.5112 3.55059 41.7552 3.71278 41.9351C3.87497 42.1151 4.09495 42.2162 4.32433 42.2162H6.91893V44.1351H4.32433C3.6362 44.1351 2.97626 43.8318 2.48968 43.292C2.00309 42.7522 1.72974 42.0201 1.72974 41.2567V38.3783C1.72974 36.1361 4.78876 34.6451 8.7879 32.9305L9.24282 32.7386C12.3183 31.4098 21.8223 30.7026 23.3514 30.7026H60.1773C60.3389 30.7018 60.4975 30.7513 60.6351 30.8454C60.7727 30.9396 60.8838 31.0746 60.9557 31.2351C61.8227 33.1547 62.2742 35.2722 62.2742 37.4193C62.2742 39.5664 61.8227 41.6839 60.9557 43.6035C60.8836 43.7639 60.7725 43.8988 60.635 43.9927C60.4974 44.0866 60.3389 44.136 60.1773 44.1351Z" fill="black"/>
<path d="M17.2972 42.2163H22.2183V44.1352H17.2972V42.2163Z" fill="black"/>
<path d="M25.6779 42.2163H45.8379V44.1352H25.6779V42.2163Z" fill="black"/>
<path d="M17.5343 33.0637L17.0594 31.2187C19.0486 30.5874 20.4419 29.2038 22.0532 27.5929C24.9522 24.704 28.5587 21.1079 37.1892 21.1079C45.44 21.1079 49.7297 24.9227 52.8692 27.708C54.752 29.3813 56.2387 30.7025 57.9459 30.7025V32.6214C55.6316 32.6214 53.8508 31.0393 51.7881 29.2057C48.6919 26.4531 44.8329 23.0268 37.1892 23.0268C29.2212 23.0268 26.0281 26.2113 23.2104 29.0215C21.5126 30.7131 19.91 32.3115 17.5343 33.0637Z" fill="black"/>
<path d="M51.0271 49.8919C49.8297 49.8919 48.6592 49.498 47.6636 48.76C46.668 48.022 45.8921 46.9731 45.4339 45.7459C44.9756 44.5187 44.8558 43.1682 45.0894 41.8654C45.3229 40.5626 45.8995 39.3659 46.7462 38.4266C47.5929 37.4873 48.6716 36.8477 49.846 36.5885C51.0204 36.3294 52.2376 36.4624 53.3439 36.9707C54.4501 37.4791 55.3956 38.3399 56.0609 39.4444C56.7261 40.5488 57.0811 41.8474 57.0811 43.1757C57.0793 44.9563 56.4409 46.6634 55.3059 47.9225C54.171 49.1816 52.6322 49.8899 51.0271 49.8919ZM51.0271 38.3784C50.1718 38.3784 49.3357 38.6598 48.6246 39.1869C47.9135 39.714 47.3592 40.4633 47.0319 41.3398C46.7046 42.2164 46.619 43.181 46.7858 44.1116C46.9527 45.0422 47.3646 45.897 47.9693 46.5679C48.5741 47.2388 49.3446 47.6957 50.1834 47.8808C51.0223 48.0659 51.8918 47.9709 52.6819 47.6078C53.4721 47.2447 54.1475 46.6298 54.6226 45.8409C55.0978 45.052 55.3514 44.1245 55.3514 43.1757C55.35 41.9038 54.894 40.6845 54.0833 39.7852C53.2727 38.8858 52.1735 38.3799 51.0271 38.3784Z" fill="black"/>
<path d="M12.1081 49.8919C10.9108 49.8919 9.74027 49.498 8.74468 48.76C7.7491 48.022 6.97313 46.9731 6.51492 45.7459C6.0567 44.5187 5.93681 43.1682 6.17041 41.8654C6.404 40.5626 6.9806 39.3659 7.82727 38.4266C8.67395 37.4873 9.75268 36.8477 10.927 36.5885C12.1014 36.3294 13.3187 36.4624 14.4249 36.9707C15.5312 37.4791 16.4767 38.3399 17.1419 39.4444C17.8071 40.5488 18.1622 41.8474 18.1622 43.1757C18.1604 44.9563 17.5219 46.6634 16.387 47.9225C15.252 49.1816 13.7132 49.8899 12.1081 49.8919ZM12.1081 38.3784C11.2529 38.3784 10.4168 38.6598 9.70567 39.1869C8.99454 39.714 8.44028 40.4633 8.11298 41.3398C7.78568 42.2164 7.70004 43.181 7.8669 44.1116C8.03375 45.0422 8.44561 45.897 9.05037 46.5679C9.65514 47.2388 10.4257 47.6957 11.2645 47.8808C12.1033 48.0659 12.9728 47.9709 13.763 47.6078C14.5531 47.2447 15.2285 46.6298 15.7037 45.8409C16.1788 45.052 16.4325 44.1245 16.4325 43.1757C16.4311 41.9038 15.975 40.6845 15.1644 39.7852C14.3537 38.8858 13.2546 38.3799 12.1081 38.3784Z" fill="black"/>
<path d="M35.4595 22.082H37.1892V31.6622H35.4595V22.082Z" fill="black"/>
</svg>
