<svg width="48" height="38" viewBox="0 0 48 38" fill="none" xmlns="http://www.w3.org/2000/svg">
<path d="M13.708 24.7729L8.87994 20.9507C7.93391 20.2034 6.67991 19.7917 5.34397 19.7917H1.99991C1.44791 19.7917 0.999878 20.1464 0.999878 20.5834C0.999878 21.0204 1.44791 21.3751 1.99991 21.3751H5.34388C6.13185 21.3751 6.90585 21.6284 7.46385 22.0701L10.5858 24.5417H1.99991C1.44791 24.5417 0.999878 24.8964 0.999878 25.3334C0.999878 25.7704 1.44791 26.1251 1.99991 26.1251H12.9999C13.4038 26.1251 13.7679 25.9319 13.9239 25.6358C14.0799 25.3398 13.9939 24.9993 13.708 24.7729Z" fill="black"/>
<path d="M13.0001 28.4999C12.4481 28.4999 12 28.8546 12 29.2916V31.6666C12 32.1036 11.55 32.4583 11 32.4583H5C4.44997 32.4583 3.99997 32.1036 3.99997 31.6666V28.4999C3.99997 28.0629 3.55194 27.7083 2.99994 27.7083C2.44794 27.7083 2 28.0629 2 28.4999V31.6666C2 32.9761 3.34597 34.0416 5 34.0416H11C12.654 34.0416 14 32.9761 14 31.6666V29.2916C14 28.8546 13.5521 28.4999 13.0001 28.4999Z" fill="black"/>
<path d="M43.462 15.1321C40.7061 13.9905 34.5201 13.4585 24 13.4585C13.4799 13.4585 7.29403 13.9905 4.53797 15.1321C1.398 16.4304 0 18.5996 0 22.1668C0 25.5963 0.991969 28.5793 1.03397 28.7044C1.14994 29.0511 1.54594 29.2918 1.99997 29.2918H10.764L14.552 30.7913C14.6919 30.8467 14.846 30.8752 15 30.8752H33C33.154 30.8752 33.308 30.8467 33.446 30.7913L37.236 29.2918H46C46.4541 29.2918 46.8501 29.0511 46.966 28.7044C47.008 28.5793 48 25.5963 48 22.1668C48 18.5996 46.602 16.4304 43.462 15.1321ZM45.21 27.7084H37.002C36.846 27.7084 36.692 27.7369 36.554 27.7924L32.7639 29.2918H15.236L11.448 27.7924C11.308 27.7369 11.154 27.7084 11 27.7084H2.79197C2.514 26.6999 1.99997 24.5212 1.99997 22.1667C1.99997 19.1853 3.00394 17.5529 5.46197 16.5348C7.85794 15.5436 14.094 15.0417 24 15.0417C33.906 15.0417 40.142 15.5437 42.538 16.5348C44.9961 17.5528 46 19.1853 46 22.1667C46 24.5212 45.486 26.6999 45.21 27.7084Z" fill="black"/>
<path d="M46 24.5417H37.414L40.534 22.0702C41.094 21.6284 41.866 21.3751 42.6561 21.3751H46C46.552 21.3751 47.0001 21.0204 47.0001 20.5834C47.0001 20.1464 46.552 19.7917 46 19.7917H42.6561C41.32 19.7917 40.066 20.2034 39.1201 20.9507L34.2921 24.7729C34.0081 24.9994 33.922 25.3397 34.0761 25.6359C34.2301 25.932 34.5961 26.1251 35.0001 26.1251H46C46.552 26.1251 47.0001 25.7704 47.0001 25.3334C47 24.8964 46.552 24.5417 46 24.5417Z" fill="black"/>
<path d="M35.906 20.2477C35.7399 19.9691 35.388 19.7917 35 19.7917H13C12.612 19.7917 12.2601 19.9691 12.094 20.2477C11.9301 20.5248 11.982 20.8542 12.232 21.0901L17.232 25.8401C17.422 26.0206 17.704 26.1251 18 26.1251H30C30.296 26.1251 30.578 26.0206 30.768 25.8401L35.768 21.0901C36.018 20.8541 36.07 20.5248 35.906 20.2477ZM29.53 24.5418H18.468L15.134 21.3751H32.864L29.53 24.5418Z" fill="black"/>
<path d="M43.918 15.5182C42.78 13.4472 38.972 6.62144 37.648 5.73C35.998 4.62006 31.272 3.95825 25 3.95825H23C16.728 3.95825 12.002 4.62006 10.352 5.72844C9.02799 6.61988 5.21799 13.4456 4.08202 15.5166C3.86405 15.9188 4.09599 16.3843 4.60205 16.5584C5.10605 16.7326 5.69808 16.5505 5.91802 16.1484C8.17599 12.0333 10.938 7.46063 11.648 6.93658C12.418 6.41883 15.676 5.54163 23 5.54163H25C32.324 5.54163 35.582 6.41883 36.348 6.93338C37.062 7.46063 39.8239 12.0317 42.082 16.1484C42.246 16.4476 42.616 16.6249 43 16.6249C43.132 16.6249 43.27 16.6044 43.398 16.56C43.9039 16.3859 44.136 15.9188 43.918 15.5182Z" fill="black"/>
<path d="M45 27.7083C44.448 27.7083 44 28.0629 44 28.4999V31.6666C44 32.1036 43.55 32.4583 43 32.4583H37C36.4499 32.4583 35.9999 32.1036 35.9999 31.6666V29.2916C35.9999 28.8546 35.5519 28.4999 34.9999 28.4999C34.4479 28.4999 33.9999 28.8546 33.9999 29.2916V31.6666C33.9999 32.9761 35.3458 34.0416 36.9999 34.0416H42.9999C44.6539 34.0416 45.9999 32.9761 45.9999 31.6666V28.4999C46.0001 28.0629 45.552 27.7083 45 27.7083Z" fill="black"/>
</svg>
