<svg width="42" height="42" viewBox="0 0 42 42" fill="none" xmlns="http://www.w3.org/2000/svg">
<path d="M40.5152 6.09668L40.3938 6.14464C40.3266 6.17176 33.5944 8.80636 21 8.80636C8.43731 8.80636 1.67271 6.1711 1.60622 6.14464L1.48483 6.09668H0V11.6758L0.0711158 11.8187C2.24097 16.1571 3.3871 21.0141 3.3871 25.8639V29.5272L9.82523 33.1041C10.025 33.2186 14.7947 35.9031 21 35.9031C27.2053 35.9031 31.975 33.2186 32.1678 33.1081L38.6129 29.5272V25.8639C38.6129 21.0135 39.759 16.1571 41.9289 11.8187L42 11.6758V6.09668H40.5152ZM31.2235 32.0758C30.4058 32.4952 27.8136 33.7111 24.3871 34.2658V10.0927C28.7827 9.92602 32.3197 9.45996 34.9724 8.95686L31.2235 32.0758ZM7.02756 8.95686C9.68101 9.4593 13.2179 9.92602 17.6129 10.0927V34.2645C14.1967 33.7098 11.6021 32.4972 10.7765 32.0745L7.02756 8.95686ZM18.9677 10.1374C19.408 10.147 19.8668 10.1496 20.3226 10.1529V34.5294C19.8625 34.5139 19.4087 34.4874 18.9677 34.4434V10.1374ZM21.6774 10.1529C22.1332 10.1496 22.592 10.147 23.0323 10.1374V34.4441C22.5913 34.4881 22.1375 34.5139 21.6774 34.5294V10.1529ZM1.35484 11.3569V7.4975C1.90491 7.69728 3.33913 8.17293 5.60756 8.66743L9.2692 31.2445L4.74194 28.7307V25.8639C4.74194 20.8583 3.57134 15.8462 1.35484 11.3569ZM40.6452 11.3569C38.4287 15.8455 37.2581 20.8577 37.2581 25.8639V28.73L32.7308 31.2452L36.3924 8.66809C38.6609 8.17359 40.0951 7.69728 40.6452 7.49816V11.3569Z" fill="#181818"/>
<path d="M9.48389 10.8386H10.8387V12.1935H9.48389V10.8386Z" fill="#181818"/>
<path d="M31.1613 10.8386H32.5161V12.1935H31.1613V10.8386Z" fill="#181818"/>
</svg>
