<svg width="27" height="25" viewBox="0 0 27 25" fill="none" xmlns="http://www.w3.org/2000/svg">
<path d="M26.413 0.307861H13.5H0.586957C0.262957 0.307861 0 0.544903 0 0.836972V12.4774V24.1178C0 24.4099 0.262957 24.6469 0.586957 24.6469H13.5H26.413C26.737 24.6469 27 24.4099 27 24.1178V12.4774V0.836972C27 0.544903 26.737 0.307861 26.413 0.307861ZM20.7865 11.9483L14.087 5.90902V2.11424L24.9961 11.9483H20.7865ZM7.87343 23.5887L1.17391 17.5495V13.7547L12.0831 23.5887H7.87343ZM5.62657 13.0065L12.913 19.5749V22.8406L2.00387 13.0065H5.62657ZM12.913 18.0786L7.28648 13.0065H12.913V18.0786ZM14.087 7.40535L19.1266 11.9483H14.087V7.40535ZM14.9169 1.36608H19.1266L25.8261 7.40535V11.2001L14.9169 1.36608ZM25.8261 5.90902L20.7865 1.36608H25.8261V5.90902ZM12.913 1.36608V11.9483H1.17391V1.36608H12.913ZM1.17391 19.0458L6.21352 23.5887H1.17391V19.0458ZM14.087 23.5887V13.0065H25.8261V23.5887H14.087Z" fill="#DA1414"/>
</svg>
