<svg width="20" height="39" viewBox="0 0 20 39" fill="none" xmlns="http://www.w3.org/2000/svg">
<path d="M10 39C12.7297 39 14.95 36.9404 14.95 34.4082V23.3284C16.509 22.4821 17.9364 20.9097 18.73 20.0342C18.8672 19.8821 19.019 19.7162 19.1204 19.6105C19.3724 19.5193 19.5522 19.2829 19.5522 19.0052V0.645286C19.5522 0.289126 19.2562 0 18.8902 0H1.10971C0.744227 0 0.447876 0.289126 0.447876 0.645286V19.0054C0.447876 19.2831 0.627122 19.5195 0.880031 19.6107C0.98127 19.716 1.132 19.8818 1.26969 20.0339C2.06411 20.9092 3.49034 22.4809 5.04972 23.3281V34.4079C5.04972 36.9406 7.27037 39 10 39ZM1.77173 16.4645H18.2284V17.2091H1.77173V16.4645ZM13.3094 15.174V1.29131H14.6332V15.1745H13.3094V15.174ZM11.9855 15.174H10.6617V1.29131H11.9855V15.174ZM9.33821 15.174H8.01436V1.29131H9.33821V15.174ZM6.69051 15.174H5.36685V1.29131H6.69051V15.174ZM18.2284 15.174H15.9571V1.29131H18.2284V15.174ZM4.043 1.29131V15.1745H1.77059V1.29131H4.043ZM2.2613 19.1796C2.05486 18.9525 1.90054 18.782 1.77173 18.6556V18.5006H18.2284V18.6549C18.0995 18.7814 17.9445 18.9525 17.7384 19.1796C16.9432 20.0552 15.4637 21.6856 14.0075 22.3498C13.7748 22.457 13.626 22.6844 13.626 22.9347V34.4084C13.626 36.2284 11.9997 37.7096 9.99986 37.7096C8.00039 37.7096 6.37338 36.2284 6.37338 34.4084V22.9347C6.37338 22.6846 6.22436 22.457 5.99223 22.3498C4.53559 21.6856 3.05629 20.0552 2.2613 19.1796Z" fill="#DA1414"/>
</svg>
