<svg width="19" height="29" viewBox="0 0 19 29" fill="none" xmlns="http://www.w3.org/2000/svg">
<path d="M16.5507 8.02753V6.10359H16.8347C17.5333 6.1055 18.1033 5.54519 18.114 4.84681V2.12869C18.1036 1.42989 17.5337 0.869146 16.8347 0.869996H1.58524C0.886223 0.869146 0.316348 1.42989 0.306152 2.12869V4.84681C0.316772 5.54519 0.886648 6.1055 1.58524 6.10359H1.86943V8.02753C1.86837 8.93874 2.28362 9.80046 2.99687 10.3674L8.11024 14.4555L3.09733 18.3439C2.36348 18.9093 1.93443 19.7846 1.9374 20.7114V22.8239H1.58524C0.886648 22.822 0.316772 23.3823 0.306152 24.0807V26.7988C0.316348 27.4976 0.886223 28.0584 1.58524 28.0575H16.8347C17.5337 28.0584 18.1036 27.4976 18.114 26.7988V24.0807C18.1033 23.3823 17.5333 22.822 16.8347 22.8239H16.6187V20.7247C16.6144 19.7889 16.176 18.9081 15.432 18.3403L10.3171 14.4502L15.4241 10.3671C16.1371 9.80024 16.5522 8.93831 16.5507 8.02753ZM1.66553 2.22937H16.7546V4.74422H1.66553V2.22937ZM16.7546 26.6981H1.66553V24.1833H2.49984C2.53893 24.1833 2.57843 24.1943 2.61943 24.1943C2.66021 24.1943 2.70014 24.1833 2.73922 24.1833H15.8105C15.8493 24.1833 15.8893 24.1943 15.93 24.1943C15.971 24.1943 16.0108 24.1833 16.0496 24.1833H16.7546V26.6981ZM15.2593 20.7247V22.8239H3.29678V20.7114C3.29572 20.205 3.53 19.7269 3.93144 19.418L9.21346 15.3208L14.6087 19.4221C15.0157 19.7322 15.2561 20.2133 15.2593 20.7247ZM14.5739 9.30556L9.21133 13.5935L3.8469 9.30556C3.4565 8.9963 3.22881 8.52562 3.22881 8.02753V6.10359H15.1913V8.02753C15.1913 8.52562 14.964 8.99609 14.5739 9.30556Z" fill="#DA1414"/>
</svg>
