<svg width="25" height="33" viewBox="0 0 25 33" fill="none" xmlns="http://www.w3.org/2000/svg">
<path d="M24.4164 4.1642L12.7291 0.0392389C12.5813 -0.013161 12.4188 -0.013161 12.2712 0.0392389L0.583824 4.1642C0.309256 4.26152 0.125244 4.52139 0.125244 4.81278V13.0627C0.125244 23.739 1.70839 27.6411 12.1906 32.9262C12.2879 32.9752 12.394 33 12.5001 33C12.6062 33 12.7123 32.9752 12.8096 32.9262C23.2919 27.6411 24.875 23.739 24.875 13.0627V4.81278C24.875 4.52139 24.691 4.26159 24.4164 4.1642ZM23.5 13.0627C23.5 23.2885 22.1962 26.5984 12.5001 31.5417C2.80402 26.5984 1.50021 23.2885 1.50021 13.0627V5.29953L12.093 1.56064L13.7381 5.94676L8.65038 9.76286C8.47713 9.89241 8.3751 10.0965 8.3751 10.3127C8.3751 10.5289 8.47713 10.733 8.65038 10.8626L13.5159 14.5122L9.95154 18.0765C9.68297 18.3451 9.68297 18.7802 9.95154 19.0487L14.0765 23.1736C14.2108 23.3079 14.3867 23.375 14.5626 23.375C14.7385 23.375 14.9144 23.3079 15.0487 23.1736C15.3173 22.9051 15.3173 22.47 15.0487 22.2015L11.4098 18.5626L15.0487 14.9238C15.1897 14.7827 15.2622 14.5881 15.2481 14.3887C15.234 14.19 15.1347 14.0073 14.9748 13.8878L10.2087 10.3127L14.9748 6.73759C15.2192 6.55429 15.3132 6.23203 15.2065 5.94605L13.6618 1.82696L23.5 5.29953V13.0627H23.5Z" fill="#DA1414"/>
</svg>
