<svg width="31" height="31" viewBox="0 0 31 31" fill="none" xmlns="http://www.w3.org/2000/svg">
<path d="M30.2484 22.0577C29.9236 21.9785 29.5958 22.1774 29.5166 22.5022C28.4686 26.7927 24.6475 29.7893 20.2243 29.7893C15.4004 29.7893 11.3998 26.1995 10.7518 21.5514C10.7598 21.5514 10.7679 21.5516 10.7759 21.5516C16.7176 21.5516 21.5516 16.7176 21.5516 10.7759C21.5516 10.7674 21.5514 10.7591 21.5514 10.7509C25.381 11.2813 28.5573 14.0776 29.5086 17.9136C29.589 18.2381 29.9173 18.4358 30.2417 18.3554C30.5662 18.275 30.7642 17.9467 30.6838 17.6222C30.1147 15.3281 28.7756 13.2515 26.9128 11.7752C25.3233 10.5151 23.4643 9.74734 21.4781 9.52005C20.8539 4.1678 16.2928 0 10.7759 0C4.83405 0 0 4.83405 0 10.7759C0 16.2935 4.16875 20.8551 9.52171 21.4783C10.1451 26.8313 14.7067 31 20.2243 31C22.6864 31 25.0042 30.1916 26.9273 28.6618C28.7929 27.178 30.1301 25.0924 30.6928 22.7895C30.772 22.4648 30.5731 22.137 30.2484 22.0577ZM20.3409 10.7759C20.3409 16.0499 16.0501 20.3409 10.7759 20.3409C10.7374 20.3409 10.6991 20.34 10.6605 20.3395C10.66 20.3009 10.6591 20.2626 10.6591 20.2241C10.6591 14.9501 14.9501 10.6591 20.2243 10.6591C20.2626 10.6591 20.3009 10.6598 20.3395 10.6603C20.34 10.6988 20.3409 10.7371 20.3409 10.7759ZM1.2107 10.7759C1.2107 5.50172 5.50149 1.2107 10.7759 1.2107C15.5998 1.2107 19.6002 4.80047 20.2484 9.44862C20.2404 9.44862 20.2324 9.44839 20.2243 9.44839C14.2824 9.44839 9.44839 14.2824 9.44839 20.2241C9.44839 20.2324 9.44886 20.2402 9.44886 20.2484C4.80047 19.6004 1.2107 15.5998 1.2107 10.7759Z" fill="#DA1414"/>
</svg>
