<svg width="32" height="30" viewBox="0 0 32 30" fill="none" xmlns="http://www.w3.org/2000/svg">
<path d="M31.7869 28.2127L21.5917 18.9017C23.5353 16.9063 24.7272 14.2876 24.7272 11.4131C24.7273 5.18694 19.1811 0.121765 12.3636 0.121765C5.54611 0.121765 0 5.18694 0 11.4131C0 17.6393 5.54618 22.7045 12.3636 22.7045C15.5111 22.7045 18.3784 21.6159 20.5633 19.8409L30.7585 29.1519C30.9005 29.2816 31.0867 29.3465 31.2727 29.3465C31.4588 29.3465 31.6449 29.2816 31.787 29.1519C32.071 28.8925 32.071 28.4722 31.7869 28.2127ZM12.3636 21.3761C6.348 21.3761 1.45452 16.907 1.45452 11.4131C1.45452 5.91922 6.348 1.45014 12.3636 1.45014C13.2192 1.45014 14.0484 1.5499 14.8478 1.72076L15.838 4.43449L10.5837 6.83376C10.2599 6.98165 10.1043 7.32413 10.2194 7.63808L11.5312 11.2335L8.94027 13.6003C8.65616 13.8598 8.65616 14.2801 8.94027 14.5395C9.08229 14.6692 9.26843 14.7341 9.4545 14.7341C9.64057 14.7341 9.82664 14.6692 9.96873 14.5395L12.8778 11.8827C13.0724 11.705 13.1406 11.4416 13.0533 11.2029L11.7983 7.76449L17.0526 5.36522C17.3765 5.21733 17.532 4.87485 17.417 4.56089L16.5626 2.21959C20.4993 3.72469 23.2728 7.27767 23.2728 11.4131C23.2727 16.9071 18.3792 21.3761 12.3636 21.3761Z" fill="#DA1414"/>
</svg>
