<svg width="41" height="41" viewBox="0 0 41 41" fill="none" xmlns="http://www.w3.org/2000/svg">
<path d="M20.5051 0H20.4949C9.19169 0 0 9.19425 0 20.5C0 24.9844 1.44525 29.1408 3.90269 32.5156L1.34788 40.1313L9.22756 37.6124C12.4691 39.7598 16.3359 41 20.5051 41C31.8083 41 41 31.8032 41 20.5C41 9.19681 31.8083 0 20.5051 0Z" fill="#4CAF50"/>
<path d="M32.4337 28.9485C31.9391 30.345 29.9762 31.5033 28.4105 31.8415C27.3394 32.0696 25.9403 32.2515 21.2304 30.2989C15.206 27.803 11.3263 21.6812 11.024 21.284C10.7344 20.8868 8.5896 18.0425 8.5896 15.1007C8.5896 12.159 10.0835 10.7265 10.6857 10.1115C11.1803 9.60672 11.9977 9.3761 12.7818 9.3761C13.0355 9.3761 13.2636 9.38891 13.4686 9.39916C14.0708 9.42479 14.3732 9.46066 14.7703 10.4113C15.2649 11.6029 16.4693 14.5447 16.6128 14.847C16.7589 15.1494 16.9049 15.5594 16.6999 15.9566C16.5077 16.3666 16.3386 16.5485 16.0362 16.897C15.7339 17.2455 15.4468 17.512 15.1445 17.8862C14.8677 18.2116 14.5551 18.5601 14.9036 19.1623C15.2521 19.7517 16.4565 21.7171 18.2297 23.2956C20.518 25.3328 22.3733 25.9837 23.037 26.2604C23.5315 26.4654 24.1209 26.4167 24.4822 26.0323C24.9409 25.5378 25.5072 24.7178 26.0838 23.9106C26.4938 23.3315 27.0114 23.2597 27.5547 23.4647C28.1082 23.6569 31.0371 25.1047 31.6393 25.4045C32.2415 25.7069 32.6387 25.8504 32.7847 26.1041C32.9282 26.3578 32.9282 27.5493 32.4337 28.9485Z" fill="#FAFAFA"/>
</svg>
